<?xml version="1.0" encoding="UTF-8" standalone="no"?>
<!-- Created with Inkscape (http://www.inkscape.org/) -->

<svg
   xmlns:dc="http://purl.org/dc/elements/1.1/"
   xmlns:cc="http://creativecommons.org/ns#"
   xmlns:rdf="http://www.w3.org/1999/02/22-rdf-syntax-ns#"
   xmlns:svg="http://www.w3.org/2000/svg"
   xmlns="http://www.w3.org/2000/svg"
   xmlns:xlink="http://www.w3.org/1999/xlink"
   xmlns:sodipodi="http://sodipodi.sourceforge.net/DTD/sodipodi-0.dtd"
   xmlns:inkscape="http://www.inkscape.org/namespaces/inkscape"
   width="465"
   height="409.22241"
   id="svg2"
   version="1.1"
   inkscape:version="0.48.5 r10040"
   sodipodi:docname="FigParadigm.svg">
  <defs
     id="defs4">
    <marker
       inkscape:stockid="TriangleInM"
       orient="auto"
       refY="0"
       refX="0"
       id="TriangleInM"
       style="overflow:visible">
      <path
         id="path5103"
         d="m 5.77,0 -8.65,5 0,-10 8.65,5 z"
         style="fill-rule:evenodd;stroke:#000000;stroke-width:1pt"
         transform="scale(-0.4,-0.4)"
         inkscape:connector-curvature="0" />
    </marker>
    <marker
       inkscape:stockid="Arrow1Sstart"
       orient="auto"
       refY="0"
       refX="0"
       id="Arrow1Sstart"
       style="overflow:visible">
      <path
         id="path4979"
         d="M 0,0 5,-5 -12.5,0 5,5 0,0 z"
         style="fill-rule:evenodd;stroke:#000000;stroke-width:1pt"
         transform="matrix(0.2,0,0,0.2,1.2,0)"
         inkscape:connector-curvature="0" />
    </marker>
    <marker
       inkscape:stockid="Arrow1Mend"
       orient="auto"
       refY="0"
       refX="0"
       id="Arrow1Mend"
       style="overflow:visible">
      <path
         id="path4976"
         d="M 0,0 5,-5 -12.5,0 5,5 0,0 z"
         style="fill-rule:evenodd;stroke:#000000;stroke-width:1pt"
         transform="matrix(-0.4,0,0,-0.4,-4,0)"
         inkscape:connector-curvature="0" />
    </marker>
    <marker
       inkscape:stockid="TriangleInM"
       orient="auto"
       refY="0"
       refX="0"
       id="TriangleInM-6"
       style="overflow:visible">
      <path
         inkscape:connector-curvature="0"
         id="path5103-0"
         d="m 5.77,0 -8.65,5 0,-10 8.65,5 z"
         style="fill-rule:evenodd;stroke:#000000;stroke-width:1pt"
         transform="scale(-0.4,-0.4)" />
    </marker>
    <marker
       inkscape:stockid="TriangleInM"
       orient="auto"
       refY="0"
       refX="0"
       id="TriangleInM-64"
       style="overflow:visible">
      <path
         inkscape:connector-curvature="0"
         id="path5103-9"
         d="m 5.77,0 -8.65,5 0,-10 8.65,5 z"
         style="fill-rule:evenodd;stroke:#000000;stroke-width:1pt"
         transform="scale(-0.4,-0.4)" />
    </marker>
    <linearGradient
       inkscape:collect="always"
       xlink:href="#linearGradient4693-0"
       id="linearGradient4699-6"
       x1="623.18347"
       y1="108.36218"
       x2="656.81653"
       y2="108.36218"
       gradientUnits="userSpaceOnUse" />
    <linearGradient
       inkscape:collect="always"
       id="linearGradient4693-0">
      <stop
         style="stop-color:#000000;stop-opacity:1;"
         offset="0"
         id="stop4695-7" />
      <stop
         style="stop-color:#000000;stop-opacity:0;"
         offset="1"
         id="stop4697-0" />
    </linearGradient>
  </defs>
  <sodipodi:namedview
     id="base"
     pagecolor="#ffffff"
     bordercolor="#666666"
     borderopacity="1.0"
     inkscape:pageopacity="0.0"
     inkscape:pageshadow="2"
     inkscape:zoom="0.7"
     inkscape:cx="387.95537"
     inkscape:cy="45.074071"
     inkscape:document-units="px"
     inkscape:current-layer="layer1"
     showgrid="true"
     inkscape:window-width="1920"
     inkscape:window-height="1143"
     inkscape:window-x="1918"
     inkscape:window-y="-3"
     inkscape:window-maximized="1"
     showguides="true"
     inkscape:guide-bbox="true"
     fit-margin-top="0"
     fit-margin-left="0"
     fit-margin-right="0"
     fit-margin-bottom="0">
    <inkscape:grid
       type="xygrid"
       id="grid2985"
       empspacing="4"
       visible="true"
       enabled="true"
       snapvisiblegridlinesonly="true"
       spacingx="16px"
       spacingy="16px"
       originx="-31.5px"
       originy="-639.87793px" />
  </sodipodi:namedview>
  <metadata
     id="metadata7">
    <rdf:RDF>
      <cc:Work
         rdf:about="">
        <dc:format>image/svg+xml</dc:format>
        <dc:type
           rdf:resource="http://purl.org/dc/dcmitype/StillImage" />
        <dc:title />
      </cc:Work>
    </rdf:RDF>
  </metadata>
  <g
     inkscape:label="Layer 1"
     inkscape:groupmode="layer"
     id="layer1"
     transform="translate(-31.5,-3.2618408)">
    <rect
       style="fill:#555753;stroke:#000000"
       id="rect3006-0"
       width="128"
       height="128"
       x="32"
       y="220.36218"
       ry="16" />
    <text
       xml:space="preserve"
       style="font-size:12.5px;font-style:normal;font-variant:normal;font-weight:normal;font-stretch:normal;text-align:center;line-height:125%;letter-spacing:0px;word-spacing:0px;text-anchor:middle;fill:#000000;fill-opacity:1;stroke:none;font-family:Ubuntu;-inkscape-font-specification:Ubuntu"
       x="96"
       y="268.36218"
       id="text3942"
       sodipodi:linespacing="125%"><tspan
         sodipodi:role="line"
         id="tspan3944"
         x="96"
         y="268.36218"
         style="font-style:normal;font-variant:normal;font-weight:normal;font-stretch:normal;text-align:center;text-anchor:middle;fill:#4e9a06;font-family:Arial;-inkscape-font-specification:Arial">Select</tspan><tspan
         sodipodi:role="line"
         x="96"
         y="303.17667"
         style="font-size:32px;font-style:normal;font-variant:normal;font-weight:normal;font-stretch:normal;text-align:center;text-anchor:middle;fill:#cc0000;font-family:Arial;-inkscape-font-specification:Arial"
         id="tspan3950">a</tspan><tspan
         sodipodi:role="line"
         x="96"
         y="343.17667"
         style="font-style:normal;font-variant:normal;font-weight:normal;font-stretch:normal;text-align:center;text-anchor:middle;font-family:Arial;-inkscape-font-specification:Arial"
         id="tspan3952" /><tspan
         sodipodi:role="line"
         x="96"
         y="383.17667"
         style="font-style:normal;font-variant:normal;font-weight:normal;font-stretch:normal;text-align:center;text-anchor:middle;font-family:Arial;-inkscape-font-specification:Arial"
         id="tspan3954" /></text>
    <rect
       style="fill:#555753;stroke:#000000"
       id="rect3006"
       width="128"
       height="128"
       x="144"
       y="236.36218"
       ry="16" />
    <path
       sodipodi:type="arc"
       style="fill:#ffffff;stroke:none"
       id="path3008"
       sodipodi:cx="96"
       sodipodi:cy="124.36218"
       sodipodi:rx="16"
       sodipodi:ry="16"
       d="m 112,124.36218 c 0,8.83656 -7.16344,16 -16,16 -8.836556,0 -16,-7.16344 -16,-16 0,-8.83655 7.163444,-16 16,-16 8.83656,0 16,7.16345 16,16 z"
       transform="translate(80,144)" />
    <path
       transform="translate(144,208)"
       sodipodi:type="arc"
       style="fill:#ffffff;stroke:none"
       id="path3008-6"
       sodipodi:cx="96"
       sodipodi:cy="124.36218"
       sodipodi:rx="16"
       sodipodi:ry="16"
       d="m 112,124.36218 c 0,8.83656 -7.16344,16 -16,16 -8.836556,0 -16,-7.16344 -16,-16 0,-8.83655 7.163444,-16 16,-16 8.83656,0 16,7.16345 16,16 z" />
    <path
       transform="matrix(1,0,0,-1,80,456.72436)"
       sodipodi:type="arc"
       style="fill:#000000;stroke:none"
       id="path3008-2"
       sodipodi:cx="96"
       sodipodi:cy="124.36218"
       sodipodi:rx="16"
       sodipodi:ry="16"
       d="m 112,124.36218 c 0,8.83656 -7.16344,16 -16,16 -8.836556,0 -16,-7.16344 -16,-16 0,-8.83655 7.163444,-16 16,-16 8.83656,0 16,7.16345 16,16 z" />
    <path
       transform="matrix(1,0,0,-1,144,392.72437)"
       sodipodi:type="arc"
       style="fill:#000000;stroke:none"
       id="path3008-6-2"
       sodipodi:cx="96"
       sodipodi:cy="124.36218"
       sodipodi:rx="16"
       sodipodi:ry="16"
       d="m 112,124.36218 c 0,8.83656 -7.16344,16 -16,16 -8.836556,0 -16,-7.16344 -16,-16 0,-8.83655 7.163444,-16 16,-16 8.83656,0 16,7.16345 16,16 z" />
    <path
       sodipodi:type="arc"
       style="fill:#4e9a06;stroke:none"
       id="path3049"
       sodipodi:cx="128"
       sodipodi:cy="156.36218"
       sodipodi:rx="16"
       sodipodi:ry="16"
       d="m 144,156.36218 c 0,8.83656 -7.16344,16 -16,16 -8.83656,0 -16,-7.16344 -16,-16 0,-8.83655 7.16344,-16 16,-16 8.83656,0 16,7.16345 16,16 z"
       transform="matrix(0.25,0,0,0.25,176,261.27164)" />
    <text
       xml:space="preserve"
       style="font-size:12.5px;font-style:normal;font-variant:normal;font-weight:normal;font-stretch:normal;line-height:125%;letter-spacing:0px;word-spacing:0px;fill:#000000;fill-opacity:1;stroke:none;font-family:Ubuntu;-inkscape-font-specification:Ubuntu"
       x="32"
       y="364.36218"
       id="text3051"
       sodipodi:linespacing="125%"><tspan
         sodipodi:role="line"
         id="tspan3053"
         x="32"
         y="364.36218"
         style="font-size:10px;font-style:normal;font-variant:normal;font-weight:normal;font-stretch:normal;fill:#000000;font-family:Arial;-inkscape-font-specification:Arial">Cue</tspan></text>
    <text
       xml:space="preserve"
       style="font-size:12.5px;font-style:normal;font-variant:normal;font-weight:normal;font-stretch:normal;line-height:125%;letter-spacing:0px;word-spacing:0px;fill:#ff0000;fill-opacity:1;stroke:none;font-family:Ubuntu;-inkscape-font-specification:Ubuntu"
       x="167.20312"
       y="276.65906"
       id="text3823"
       sodipodi:linespacing="125%"><tspan
         sodipodi:role="line"
         id="tspan3825"
         x="167.20312"
         y="276.65906"
         style="font-size:32px;font-style:normal;font-variant:normal;font-weight:normal;font-stretch:normal;fill:#ff0000;font-family:Arial;-inkscape-font-specification:Arial">a</tspan></text>
    <text
       xml:space="preserve"
       style="font-size:12.5px;font-style:normal;font-variant:normal;font-weight:normal;font-stretch:normal;line-height:125%;letter-spacing:0px;word-spacing:0px;fill:#000000;fill-opacity:1;stroke:none;font-family:Ubuntu;-inkscape-font-specification:Ubuntu"
       x="236.57364"
       y="267.52692"
       id="text3827"
       sodipodi:linespacing="125%"><tspan
         sodipodi:role="line"
         id="tspan3829"
         x="236.57364"
         y="267.52692">B</tspan></text>
    <text
       xml:space="preserve"
       style="font-size:12.5px;font-style:normal;font-variant:normal;font-weight:normal;font-stretch:normal;line-height:125%;letter-spacing:0px;word-spacing:0px;fill:#ffff00;fill-opacity:1;stroke:none;font-family:Ubuntu;-inkscape-font-specification:Ubuntu"
       x="230.71094"
       y="279.62781"
       id="text3823-3"
       sodipodi:linespacing="125%"><tspan
         sodipodi:role="line"
         id="tspan3825-4"
         x="230.71094"
         y="279.62781"
         style="font-size:32px;font-style:normal;font-variant:normal;font-weight:normal;font-stretch:normal;fill:#edd400;font-family:Arial;-inkscape-font-specification:Arial">b</tspan></text>
    <rect
       style="fill:#555753;stroke:#000000"
       id="rect3006-9"
       width="128"
       height="128"
       x="256"
       y="252.36218"
       ry="16" />
    <path
       transform="translate(192,160)"
       sodipodi:type="arc"
       style="fill:#000000;stroke:none"
       id="path3008-9"
       sodipodi:cx="96"
       sodipodi:cy="124.36218"
       sodipodi:rx="16"
       sodipodi:ry="16"
       d="m 112,124.36218 c 0,8.83656 -7.16344,16 -16,16 -8.836556,0 -16,-7.16344 -16,-16 0,-8.83655 7.163444,-16 16,-16 8.83656,0 16,7.16345 16,16 z" />
    <path
       transform="translate(256,224)"
       sodipodi:type="arc"
       style="fill:#000000;stroke:none"
       id="path3008-6-3"
       sodipodi:cx="96"
       sodipodi:cy="124.36218"
       sodipodi:rx="16"
       sodipodi:ry="16"
       d="m 112,124.36218 c 0,8.83656 -7.16344,16 -16,16 -8.836556,0 -16,-7.16344 -16,-16 0,-8.83655 7.163444,-16 16,-16 8.83656,0 16,7.16345 16,16 z" />
    <path
       transform="matrix(1,0,0,-1,192,472.72436)"
       sodipodi:type="arc"
       style="fill:#ffffff;stroke:none"
       id="path3008-2-6"
       sodipodi:cx="96"
       sodipodi:cy="124.36218"
       sodipodi:rx="16"
       sodipodi:ry="16"
       d="m 112,124.36218 c 0,8.83656 -7.16344,16 -16,16 -8.836556,0 -16,-7.16344 -16,-16 0,-8.83655 7.163444,-16 16,-16 8.83656,0 16,7.16345 16,16 z" />
    <path
       transform="matrix(1,0,0,-1,256,408.72437)"
       sodipodi:type="arc"
       style="fill:#ffffff;stroke:none"
       id="path3008-6-2-4"
       sodipodi:cx="96"
       sodipodi:cy="124.36218"
       sodipodi:rx="16"
       sodipodi:ry="16"
       d="m 112,124.36218 c 0,8.83656 -7.16344,16 -16,16 -8.836556,0 -16,-7.16344 -16,-16 0,-8.83655 7.163444,-16 16,-16 8.83656,0 16,7.16345 16,16 z" />
    <path
       sodipodi:type="arc"
       style="fill:#4e9a06;stroke:none"
       id="path3049-2"
       sodipodi:cx="128"
       sodipodi:cy="156.36218"
       sodipodi:rx="16"
       sodipodi:ry="16"
       d="m 144,156.36218 c 0,8.83656 -7.16344,16 -16,16 -8.83656,0 -16,-7.16344 -16,-16 0,-8.83655 7.16344,-16 16,-16 8.83656,0 16,7.16345 16,16 z"
       transform="matrix(0.25,0,0,0.25,288,277.27164)" />
    <text
       xml:space="preserve"
       style="font-size:12.5px;font-style:normal;font-variant:normal;font-weight:normal;font-stretch:normal;line-height:125%;letter-spacing:0px;word-spacing:0px;fill:#ff0000;fill-opacity:1;stroke:none;font-family:Ubuntu;-inkscape-font-specification:Ubuntu"
       x="279.20312"
       y="292.65906"
       id="text3823-1"
       sodipodi:linespacing="125%"><tspan
         sodipodi:role="line"
         id="tspan3825-7"
         x="279.20312"
         y="292.65906"
         style="font-size:32px;font-style:normal;font-variant:normal;font-weight:normal;font-stretch:normal;fill:#cc0000;font-family:Arial;-inkscape-font-specification:Arial">a</tspan></text>
    <text
       xml:space="preserve"
       style="font-size:12.5px;font-style:normal;font-variant:normal;font-weight:normal;font-stretch:normal;line-height:125%;letter-spacing:0px;word-spacing:0px;fill:#ffff00;fill-opacity:1;stroke:none;font-family:Ubuntu;-inkscape-font-specification:Ubuntu"
       x="342.71094"
       y="295.62781"
       id="text3823-3-0"
       sodipodi:linespacing="125%"><tspan
         sodipodi:role="line"
         id="tspan3825-4-2"
         x="342.71094"
         y="295.62781"
         style="font-size:32px;font-style:normal;font-variant:normal;font-weight:normal;font-stretch:normal;fill:#edd400;font-family:Arial;-inkscape-font-specification:Arial">b</tspan></text>
    <rect
       style="fill:#555753;stroke:#000000"
       id="rect3006-0-5"
       width="128"
       height="128"
       x="368"
       y="268.36218"
       ry="16" />
    <text
       xml:space="preserve"
       style="font-size:12.5px;font-style:normal;font-variant:normal;font-weight:normal;font-stretch:normal;text-align:center;line-height:125%;letter-spacing:0px;word-spacing:0px;text-anchor:middle;fill:#000000;fill-opacity:1;stroke:none;font-family:Ubuntu;-inkscape-font-specification:Ubuntu"
       x="432"
       y="316.36218"
       id="text3942-5"
       sodipodi:linespacing="125%"><tspan
         sodipodi:role="line"
         id="tspan3944-5"
         x="432"
         y="316.36218"
         style="font-style:normal;font-variant:normal;font-weight:normal;font-stretch:normal;text-align:center;text-anchor:middle;fill:#4e9a06;font-family:Arial;-inkscape-font-specification:Arial">You selected</tspan><tspan
         sodipodi:role="line"
         x="432"
         y="351.17667"
         style="font-size:32px;font-style:normal;font-variant:normal;font-weight:normal;font-stretch:normal;text-align:center;text-anchor:middle;fill:#cc0000;font-family:Arial;-inkscape-font-specification:Arial"
         id="tspan3950-2">a</tspan><tspan
         sodipodi:role="line"
         x="432"
         y="391.17667"
         style="font-style:normal;font-variant:normal;font-weight:normal;font-stretch:normal;text-align:center;text-anchor:middle;font-family:Arial;-inkscape-font-specification:Arial"
         id="tspan3952-9" /><tspan
         sodipodi:role="line"
         x="432"
         y="431.17667"
         style="font-style:normal;font-variant:normal;font-weight:normal;font-stretch:normal;text-align:center;text-anchor:middle;font-family:Arial;-inkscape-font-specification:Arial"
         id="tspan3954-3" /></text>
    <text
       xml:space="preserve"
       style="font-size:12.5px;font-style:normal;font-variant:normal;font-weight:normal;font-stretch:normal;line-height:125%;letter-spacing:0px;word-spacing:0px;fill:#000000;fill-opacity:1;stroke:none;font-family:Ubuntu;-inkscape-font-specification:Ubuntu"
       x="144"
       y="380.36218"
       id="text3051-8"
       sodipodi:linespacing="125%"><tspan
         sodipodi:role="line"
         id="tspan3053-5"
         x="144"
         y="380.36218"
         style="font-size:10px;font-style:normal;font-variant:normal;font-weight:normal;font-stretch:normal;font-family:Arial;-inkscape-font-specification:Arial">Cycle 1</tspan><tspan
         sodipodi:role="line"
         x="144"
         y="392.86218"
         style="font-size:10px;font-style:normal;font-variant:normal;font-weight:normal;font-stretch:normal;font-family:Arial;-inkscape-font-specification:Arial"
         id="tspan4117">Selection phase</tspan></text>
    <rect
       style="fill:#555753;stroke:#000000"
       id="rect3006-4"
       width="128"
       height="128"
       x="32"
       y="28.362179"
       ry="16" />
    <path
       sodipodi:type="arc"
       style="fill:#ffffff;stroke:none"
       id="path3008-7"
       sodipodi:cx="96"
       sodipodi:cy="124.36218"
       sodipodi:rx="16"
       sodipodi:ry="16"
       d="m 112,124.36218 c 0,8.83656 -7.16344,16 -16,16 -8.836556,0 -16,-7.16344 -16,-16 0,-8.83655 7.163444,-16 16,-16 8.83656,0 16,7.16345 16,16 z"
       transform="translate(-32,-63.999996)" />
    <path
       transform="translate(32,3.8146973e-6)"
       sodipodi:type="arc"
       style="fill:#ffffff;stroke:none"
       id="path3008-6-8"
       sodipodi:cx="96"
       sodipodi:cy="124.36218"
       sodipodi:rx="16"
       sodipodi:ry="16"
       d="m 112,124.36218 c 0,8.83656 -7.16344,16 -16,16 -8.836556,0 -16,-7.16344 -16,-16 0,-8.83655 7.163444,-16 16,-16 8.83656,0 16,7.16345 16,16 z" />
    <path
       transform="matrix(1,0,0,-1,-32,248.72436)"
       sodipodi:type="arc"
       style="fill:#000000;stroke:none"
       id="path3008-2-7"
       sodipodi:cx="96"
       sodipodi:cy="124.36218"
       sodipodi:rx="16"
       sodipodi:ry="16"
       d="m 112,124.36218 c 0,8.83656 -7.16344,16 -16,16 -8.836556,0 -16,-7.16344 -16,-16 0,-8.83655 7.163444,-16 16,-16 8.83656,0 16,7.16345 16,16 z" />
    <path
       transform="matrix(1,0,0,-1,32,184.72437)"
       sodipodi:type="arc"
       style="fill:#000000;stroke:none"
       id="path3008-6-2-1"
       sodipodi:cx="96"
       sodipodi:cy="124.36218"
       sodipodi:rx="16"
       sodipodi:ry="16"
       d="m 112,124.36218 c 0,8.83656 -7.16344,16 -16,16 -8.836556,0 -16,-7.16344 -16,-16 0,-8.83655 7.163444,-16 16,-16 8.83656,0 16,7.16345 16,16 z" />
    <path
       sodipodi:type="arc"
       style="fill:#4e9a06;stroke:none"
       id="path3049-7"
       sodipodi:cx="128"
       sodipodi:cy="156.36218"
       sodipodi:rx="16"
       sodipodi:ry="16"
       d="m 144,156.36218 c 0,8.83656 -7.16344,16 -16,16 -8.83656,0 -16,-7.16344 -16,-16 0,-8.83655 7.16344,-16 16,-16 8.83656,0 16,7.16345 16,16 z"
       transform="matrix(0.25,0,0,0.25,64,53.271639)" />
    <text
       xml:space="preserve"
       style="font-size:12.5px;font-style:normal;font-variant:normal;font-weight:normal;font-stretch:normal;line-height:125%;letter-spacing:0px;word-spacing:0px;fill:#ff0000;fill-opacity:1;stroke:none;font-family:Ubuntu;-inkscape-font-specification:Ubuntu"
       x="55.203117"
       y="68.659058"
       id="text3823-6"
       sodipodi:linespacing="125%"><tspan
         sodipodi:role="line"
         id="tspan3825-43"
         x="55.203117"
         y="68.659058"
         style="font-size:32px;font-style:normal;font-variant:normal;font-weight:normal;font-stretch:normal;fill:#ff0000;font-family:Arial;-inkscape-font-specification:Arial">a</tspan></text>
    <text
       xml:space="preserve"
       style="font-size:12.5px;font-style:normal;font-variant:normal;font-weight:normal;font-stretch:normal;line-height:125%;letter-spacing:0px;word-spacing:0px;fill:#000000;fill-opacity:1;stroke:none;font-family:Ubuntu;-inkscape-font-specification:Ubuntu"
       x="124.57364"
       y="59.526913"
       id="text3827-0"
       sodipodi:linespacing="125%"><tspan
         sodipodi:role="line"
         id="tspan3829-8"
         x="124.57364"
         y="59.526913">B</tspan></text>
    <text
       xml:space="preserve"
       style="font-size:12.5px;font-style:normal;font-variant:normal;font-weight:normal;font-stretch:normal;line-height:125%;letter-spacing:0px;word-spacing:0px;fill:#ffff00;fill-opacity:1;stroke:none;font-family:Ubuntu;-inkscape-font-specification:Ubuntu"
       x="118.71094"
       y="71.627808"
       id="text3823-3-6"
       sodipodi:linespacing="125%"><tspan
         sodipodi:role="line"
         id="tspan3825-4-9"
         x="118.71094"
         y="71.627808"
         style="font-size:32px;font-style:normal;font-variant:normal;font-weight:normal;font-stretch:normal;fill:#edd400;font-family:Arial;-inkscape-font-specification:Arial">b</tspan></text>
    <path
       transform="matrix(1,0,0,-1,80,264.72436)"
       sodipodi:type="arc"
       style="fill:#ffffff;stroke:none"
       id="path3008-2-6-4"
       sodipodi:cx="96"
       sodipodi:cy="124.36218"
       sodipodi:rx="16"
       sodipodi:ry="16"
       d="m 112,124.36218 c 0,8.83656 -7.16344,16 -16,16 -8.836556,0 -16,-7.16344 -16,-16 0,-8.83655 7.163444,-16 16,-16 8.83656,0 16,7.16345 16,16 z" />
    <text
       xml:space="preserve"
       style="font-size:12.5px;font-style:normal;font-variant:normal;font-weight:normal;font-stretch:normal;line-height:125%;letter-spacing:0px;word-spacing:0px;fill:#000000;fill-opacity:1;stroke:none;font-family:Ubuntu;-inkscape-font-specification:Ubuntu"
       x="256"
       y="396.36218"
       id="text3051-8-8"
       sodipodi:linespacing="125%"><tspan
         sodipodi:role="line"
         id="tspan3053-5-1"
         x="256"
         y="396.36218"
         style="font-size:10px;font-style:normal;font-variant:normal;font-weight:normal;font-stretch:normal;font-family:Arial;-inkscape-font-specification:Arial">Cycle 2</tspan><tspan
         sodipodi:role="line"
         x="256"
         y="408.86218"
         style="font-size:10px;font-style:normal;font-variant:normal;font-weight:normal;font-stretch:normal;font-family:Arial;-inkscape-font-specification:Arial"
         id="tspan3205">Selection phase</tspan></text>
    <rect
       style="fill:#555753;stroke:#000000"
       id="rect3006-4-7"
       width="128"
       height="128"
       x="208"
       y="28.362179"
       ry="16" />
    <path
       sodipodi:type="arc"
       style="fill:#ffffff;stroke:none"
       id="path3008-7-7"
       sodipodi:cx="96"
       sodipodi:cy="124.36218"
       sodipodi:rx="16"
       sodipodi:ry="16"
       d="m 112,124.36218 c 0,8.83656 -7.16344,16 -16,16 -8.836556,0 -16,-7.16344 -16,-16 0,-8.83655 7.163444,-16 16,-16 8.83656,0 16,7.16345 16,16 z"
       transform="translate(144,-63.999996)" />
    <path
       transform="translate(208,3.8146973e-6)"
       sodipodi:type="arc"
       style="fill:#ffffff;stroke:none"
       id="path3008-6-8-9"
       sodipodi:cx="96"
       sodipodi:cy="124.36218"
       sodipodi:rx="16"
       sodipodi:ry="16"
       d="m 112,124.36218 c 0,8.83656 -7.16344,16 -16,16 -8.836556,0 -16,-7.16344 -16,-16 0,-8.83655 7.163444,-16 16,-16 8.83656,0 16,7.16345 16,16 z" />
    <path
       transform="matrix(1,0,0,-1,144,248.72436)"
       sodipodi:type="arc"
       style="fill:#000000;stroke:none"
       id="path3008-2-7-2"
       sodipodi:cx="96"
       sodipodi:cy="124.36218"
       sodipodi:rx="16"
       sodipodi:ry="16"
       d="m 112,124.36218 c 0,8.83656 -7.16344,16 -16,16 -8.836556,0 -16,-7.16344 -16,-16 0,-8.83655 7.163444,-16 16,-16 8.83656,0 16,7.16345 16,16 z" />
    <path
       transform="matrix(1,0,0,-1,208,184.72437)"
       sodipodi:type="arc"
       style="fill:#000000;stroke:none"
       id="path3008-6-2-1-3"
       sodipodi:cx="96"
       sodipodi:cy="124.36218"
       sodipodi:rx="16"
       sodipodi:ry="16"
       d="m 112,124.36218 c 0,8.83656 -7.16344,16 -16,16 -8.836556,0 -16,-7.16344 -16,-16 0,-8.83655 7.163444,-16 16,-16 8.83656,0 16,7.16345 16,16 z" />
    <path
       sodipodi:type="arc"
       style="fill:#4e9a06;stroke:none"
       id="path3049-7-1"
       sodipodi:cx="128"
       sodipodi:cy="156.36218"
       sodipodi:rx="16"
       sodipodi:ry="16"
       d="m 144,156.36218 c 0,8.83656 -7.16344,16 -16,16 -8.83656,0 -16,-7.16344 -16,-16 0,-8.83655 7.16344,-16 16,-16 8.83656,0 16,7.16345 16,16 z"
       transform="matrix(0.25,0,0,0.25,240,53.271639)" />
    <text
       xml:space="preserve"
       style="font-size:12.5px;font-style:normal;font-variant:normal;font-weight:normal;font-stretch:normal;line-height:125%;letter-spacing:0px;word-spacing:0px;fill:#ff0000;fill-opacity:1;stroke:none;font-family:Ubuntu;-inkscape-font-specification:Ubuntu"
       x="231.20312"
       y="68.659058"
       id="text3823-6-1"
       sodipodi:linespacing="125%"><tspan
         sodipodi:role="line"
         id="tspan3825-43-6"
         x="231.20312"
         y="68.659058"
         style="font-size:32px;font-style:normal;font-variant:normal;font-weight:normal;font-stretch:normal;fill:#ff0000;font-family:Arial;-inkscape-font-specification:Arial">a</tspan></text>
    <text
       xml:space="preserve"
       style="font-size:12.5px;font-style:normal;font-variant:normal;font-weight:normal;font-stretch:normal;line-height:125%;letter-spacing:0px;word-spacing:0px;fill:#000000;fill-opacity:1;stroke:none;font-family:Ubuntu;-inkscape-font-specification:Ubuntu"
       x="300.57364"
       y="59.526913"
       id="text3827-0-1"
       sodipodi:linespacing="125%"><tspan
         sodipodi:role="line"
         id="tspan3829-8-9"
         x="300.57364"
         y="59.526913">B</tspan></text>
    <text
       xml:space="preserve"
       style="font-size:12.5px;font-style:normal;font-variant:normal;font-weight:normal;font-stretch:normal;line-height:125%;letter-spacing:0px;word-spacing:0px;fill:#ffff00;fill-opacity:1;stroke:none;font-family:Ubuntu;-inkscape-font-specification:Ubuntu"
       x="294.71094"
       y="71.627808"
       id="text3823-3-6-1"
       sodipodi:linespacing="125%"><tspan
         sodipodi:role="line"
         id="tspan3825-4-9-7"
         x="294.71094"
         y="71.627808"
         style="font-size:32px;font-style:normal;font-variant:normal;font-weight:normal;font-stretch:normal;fill:#edd400;font-family:Arial;-inkscape-font-specification:Arial">b</tspan></text>
    <text
       xml:space="preserve"
       style="font-size:12.5px;font-style:normal;font-variant:normal;font-weight:normal;font-stretch:normal;line-height:125%;letter-spacing:0px;word-spacing:0px;fill:#73d216;fill-opacity:1;stroke:none;font-family:Ubuntu;-inkscape-font-specification:Ubuntu"
       x="231.71094"
       y="135.62781"
       id="text3823-3-6-8"
       sodipodi:linespacing="125%"><tspan
         sodipodi:role="line"
         id="tspan3825-4-9-5"
         x="231.71094"
         y="135.62781"
         style="font-size:32px;font-style:normal;font-variant:normal;font-weight:normal;font-stretch:normal;fill:#73d216;font-family:Arial;-inkscape-font-specification:Arial">d</tspan></text>
    <text
       xml:space="preserve"
       style="font-size:12.5px;font-style:normal;font-variant:normal;font-weight:normal;font-stretch:normal;line-height:125%;letter-spacing:0px;word-spacing:0px;fill:#3465a4;fill-opacity:1;stroke:none;font-family:Ubuntu;-inkscape-font-specification:Ubuntu"
       x="295.52344"
       y="132.65906"
       id="text3823-3-6-8-0"
       sodipodi:linespacing="125%"><tspan
         sodipodi:role="line"
         id="tspan3825-4-9-5-9"
         x="295.52344"
         y="132.65906"
         style="font-size:32px;font-style:normal;font-variant:normal;font-weight:normal;font-stretch:normal;fill:#3465a4;font-family:Arial;-inkscape-font-specification:Arial">c</tspan></text>
    <rect
       style="fill:#555753;stroke:#000000"
       id="rect3006-4-7-2"
       width="128"
       height="128"
       x="368"
       y="28.362179"
       ry="16" />
    <path
       sodipodi:type="arc"
       style="fill:#ffffff;stroke:none"
       id="path3008-7-7-8"
       sodipodi:cx="96"
       sodipodi:cy="124.36218"
       sodipodi:rx="16"
       sodipodi:ry="16"
       d="m 112,124.36218 c 0,8.83656 -7.16344,16 -16,16 -8.836556,0 -16,-7.16344 -16,-16 0,-8.83655 7.163444,-16 16,-16 8.83656,0 16,7.16345 16,16 z"
       transform="translate(304,-63.999996)" />
    <path
       transform="translate(368,-63.999996)"
       sodipodi:type="arc"
       style="fill:#ffffff;stroke:none"
       id="path3008-6-8-9-5"
       sodipodi:cx="96"
       sodipodi:cy="124.36218"
       sodipodi:rx="16"
       sodipodi:ry="16"
       d="m 112,124.36218 c 0,8.83656 -7.16344,16 -16,16 -8.836556,0 -16,-7.16344 -16,-16 0,-8.83655 7.163444,-16 16,-16 8.83656,0 16,7.16345 16,16 z" />
    <path
       transform="matrix(1,0,0,-1,382,216.72437)"
       sodipodi:type="arc"
       style="fill:#000000;stroke:none"
       id="path3008-2-7-2-7"
       sodipodi:cx="96"
       sodipodi:cy="124.36218"
       sodipodi:rx="16"
       sodipodi:ry="16"
       d="m 112,124.36218 c 0,8.83656 -7.16344,16 -16,16 -8.836556,0 -16,-7.16344 -16,-16 0,-8.83655 7.163444,-16 16,-16 8.83656,0 16,7.16345 16,16 z" />
    <path
       transform="matrix(1,0,0,-1,336,170.72437)"
       sodipodi:type="arc"
       style="fill:#000000;stroke:none"
       id="path3008-6-2-1-3-9"
       sodipodi:cx="96"
       sodipodi:cy="124.36218"
       sodipodi:rx="16"
       sodipodi:ry="16"
       d="m 112,124.36218 c 0,8.83656 -7.16344,16 -16,16 -8.836556,0 -16,-7.16344 -16,-16 0,-8.83655 7.163444,-16 16,-16 8.83656,0 16,7.16345 16,16 z" />
    <path
       sodipodi:type="arc"
       style="fill:#4e9a06;stroke:none"
       id="path3049-7-1-4"
       sodipodi:cx="128"
       sodipodi:cy="156.36218"
       sodipodi:rx="16"
       sodipodi:ry="16"
       d="m 144,156.36218 c 0,8.83656 -7.16344,16 -16,16 -8.83656,0 -16,-7.16344 -16,-16 0,-8.83655 7.16344,-16 16,-16 8.83656,0 16,7.16345 16,16 z"
       transform="matrix(0.25,0,0,0.25,400,53.271639)" />
    <text
       xml:space="preserve"
       style="font-size:12.5px;font-style:normal;font-variant:normal;font-weight:normal;font-stretch:normal;line-height:125%;letter-spacing:0px;word-spacing:0px;fill:#ff0000;fill-opacity:1;stroke:none;font-family:Ubuntu;-inkscape-font-specification:Ubuntu"
       x="391.20312"
       y="68.659058"
       id="text3823-6-1-3"
       sodipodi:linespacing="125%"><tspan
         sodipodi:role="line"
         id="tspan3825-43-6-0"
         x="391.20312"
         y="68.659058"
         style="font-size:32px;font-style:normal;font-variant:normal;font-weight:normal;font-stretch:normal;fill:#ff0000;font-family:Arial;-inkscape-font-specification:Arial">a</tspan></text>
    <text
       xml:space="preserve"
       style="font-size:12.5px;font-style:normal;font-variant:normal;font-weight:normal;font-stretch:normal;line-height:125%;letter-spacing:0px;word-spacing:0px;fill:#ffff00;fill-opacity:1;stroke:none;font-family:Ubuntu;-inkscape-font-specification:Ubuntu"
       x="422.71094"
       y="57.627804"
       id="text3823-3-6-1-2"
       sodipodi:linespacing="125%"><tspan
         sodipodi:role="line"
         id="tspan3825-4-9-7-7"
         x="422.71094"
         y="57.627804"
         style="font-size:32px;font-style:normal;font-variant:normal;font-weight:normal;font-stretch:normal;fill:#edd400;font-family:Arial;-inkscape-font-specification:Arial">b</tspan></text>
    <text
       xml:space="preserve"
       style="font-size:12.5px;font-style:normal;font-variant:normal;font-weight:normal;font-stretch:normal;line-height:125%;letter-spacing:0px;word-spacing:0px;fill:#73d216;fill-opacity:1;stroke:none;font-family:Ubuntu;-inkscape-font-specification:Ubuntu"
       x="469.71094"
       y="103.62781"
       id="text3823-3-6-8-5"
       sodipodi:linespacing="125%"><tspan
         sodipodi:role="line"
         id="tspan3825-4-9-5-6"
         x="469.71094"
         y="103.62781"
         style="font-size:32px;font-style:normal;font-variant:normal;font-weight:normal;font-stretch:normal;fill:#73d216;font-family:Arial;-inkscape-font-specification:Arial">d</tspan></text>
    <text
       xml:space="preserve"
       style="font-size:12.5px;font-style:normal;font-variant:normal;font-weight:normal;font-stretch:normal;line-height:125%;letter-spacing:0px;word-spacing:0px;fill:#3465a4;fill-opacity:1;stroke:none;font-family:Ubuntu;-inkscape-font-specification:Ubuntu"
       x="455.52344"
       y="68.659058"
       id="text3823-3-6-8-0-5"
       sodipodi:linespacing="125%"><tspan
         sodipodi:role="line"
         id="tspan3825-4-9-5-9-4"
         x="455.52344"
         y="68.659058"
         style="font-size:32px;font-style:normal;font-variant:normal;font-weight:normal;font-stretch:normal;fill:#3465a4;font-family:Arial;-inkscape-font-specification:Arial">c</tspan></text>
    <path
       sodipodi:type="arc"
       style="fill:#ffffff;stroke:none"
       id="path3008-7-7-8-8"
       sodipodi:cx="96"
       sodipodi:cy="124.36218"
       sodipodi:rx="16"
       sodipodi:ry="16"
       d="m 112,124.36218 c 0,8.83656 -7.16344,16 -16,16 -8.836556,0 -16,-7.16344 -16,-16 0,-8.83655 7.163444,-16 16,-16 8.83656,0 16,7.16345 16,16 z"
       transform="matrix(-1,0,0,-1,560,248.72437)" />
    <path
       transform="matrix(-1,0,0,-1,496,248.72437)"
       sodipodi:type="arc"
       style="fill:#ffffff;stroke:none"
       id="path3008-6-8-9-5-0"
       sodipodi:cx="96"
       sodipodi:cy="124.36218"
       sodipodi:rx="16"
       sodipodi:ry="16"
       d="m 112,124.36218 c 0,8.83656 -7.16344,16 -16,16 -8.836556,0 -16,-7.16344 -16,-16 0,-8.83655 7.163444,-16 16,-16 8.83656,0 16,7.16345 16,16 z" />
    <path
       transform="matrix(-1,0,0,1,482,-31.999996)"
       sodipodi:type="arc"
       style="fill:#000000;stroke:none"
       id="path3008-2-7-2-7-8"
       sodipodi:cx="96"
       sodipodi:cy="124.36218"
       sodipodi:rx="16"
       sodipodi:ry="16"
       d="m 112,124.36218 c 0,8.83656 -7.16344,16 -16,16 -8.836556,0 -16,-7.16344 -16,-16 0,-8.83655 7.163444,-16 16,-16 8.83656,0 16,7.16345 16,16 z" />
    <path
       transform="matrix(-1,0,0,1,528,14.000004)"
       sodipodi:type="arc"
       style="fill:#000000;stroke:none"
       id="path3008-6-2-1-3-9-2"
       sodipodi:cx="96"
       sodipodi:cy="124.36218"
       sodipodi:rx="16"
       sodipodi:ry="16"
       d="m 112,124.36218 c 0,8.83656 -7.16344,16 -16,16 -8.836556,0 -16,-7.16344 -16,-16 0,-8.83655 7.163444,-16 16,-16 8.83656,0 16,7.16345 16,16 z" />
    <text
       xml:space="preserve"
       style="font-size:12.5px;font-style:normal;font-variant:normal;font-weight:normal;font-stretch:normal;line-height:125%;letter-spacing:0px;word-spacing:0px;fill:#ff0000;fill-opacity:1;stroke:none;font-family:Ubuntu;-inkscape-font-specification:Ubuntu"
       x="455.17969"
       y="132.65906"
       id="text3823-6-1-3-8"
       sodipodi:linespacing="125%"><tspan
         sodipodi:role="line"
         id="tspan3825-43-6-0-9"
         x="455.17969"
         y="132.65906"
         style="font-size:32px;font-style:normal;font-variant:normal;font-weight:normal;font-stretch:normal;fill:#ff0000;font-family:Arial;-inkscape-font-specification:Arial">e</tspan></text>
    <text
       xml:space="preserve"
       style="font-size:12.5px;font-style:normal;font-variant:normal;font-weight:normal;font-stretch:normal;line-height:125%;letter-spacing:0px;word-spacing:0px;fill:#ffff00;fill-opacity:1;stroke:none;font-family:Ubuntu;-inkscape-font-specification:Ubuntu"
       x="426.85156"
       y="150.01062"
       id="text3823-3-6-1-2-6"
       sodipodi:linespacing="125%"><tspan
         sodipodi:role="line"
         id="tspan3825-4-9-7-7-6"
         x="426.85156"
         y="150.01062"
         style="font-size:32px;font-style:normal;font-variant:normal;font-weight:normal;font-stretch:normal;fill:#edd400;font-family:Arial;-inkscape-font-specification:Arial">f</tspan></text>
    <text
       xml:space="preserve"
       style="font-size:12.5px;font-style:normal;font-variant:normal;font-weight:normal;font-stretch:normal;line-height:125%;letter-spacing:0px;word-spacing:0px;fill:#73d216;fill-opacity:1;stroke:none;font-family:Ubuntu;-inkscape-font-specification:Ubuntu"
       x="377.13281"
       y="103.81531"
       id="text3823-3-6-8-5-8"
       sodipodi:linespacing="125%"><tspan
         sodipodi:role="line"
         id="tspan3825-4-9-5-6-3"
         x="377.13281"
         y="103.81531"
         style="font-size:32px;font-style:normal;font-variant:normal;font-weight:normal;font-stretch:normal;fill:#73d216;font-family:Arial;-inkscape-font-specification:Arial">h</tspan></text>
    <text
       xml:space="preserve"
       style="font-size:12.5px;font-style:normal;font-variant:normal;font-weight:normal;font-stretch:normal;line-height:125%;letter-spacing:0px;word-spacing:0px;fill:#3465a4;fill-opacity:1;stroke:none;font-family:Ubuntu;-inkscape-font-specification:Ubuntu"
       x="391.65625"
       y="129.47937"
       id="text3823-3-6-8-0-5-8"
       sodipodi:linespacing="125%"><tspan
         sodipodi:role="line"
         id="tspan3825-4-9-5-9-4-8"
         x="391.65625"
         y="129.47937"
         style="font-size:32px;font-style:normal;font-variant:normal;font-weight:normal;font-stretch:normal;fill:#3465a4;font-family:Arial;-inkscape-font-specification:Arial">g</tspan></text>
    <text
       xml:space="preserve"
       style="font-size:10px;font-style:normal;font-variant:normal;font-weight:normal;font-stretch:normal;line-height:125%;letter-spacing:0px;word-spacing:0px;fill:#000000;fill-opacity:1;stroke:none;font-family:Ubuntu;-inkscape-font-specification:Ubuntu"
       x="32"
       y="172.36218"
       id="text3051-4"
       sodipodi:linespacing="125%"><tspan
         sodipodi:role="line"
         id="tspan3053-4"
         x="32"
         y="172.36218"
         style="font-size:10px;font-style:normal;font-variant:normal;font-weight:normal;font-stretch:normal;fill:#000000;font-family:Arial;-inkscape-font-specification:Arial">Two items</tspan></text>
    <text
       xml:space="preserve"
       style="font-size:12.5px;font-style:normal;font-variant:normal;font-weight:normal;font-stretch:normal;line-height:125%;letter-spacing:0px;word-spacing:0px;fill:#000000;fill-opacity:1;stroke:none;font-family:Ubuntu;-inkscape-font-specification:Ubuntu"
       x="208"
       y="172.36218"
       id="text3051-4-6"
       sodipodi:linespacing="125%"><tspan
         sodipodi:role="line"
         id="tspan3053-4-5"
         x="208"
         y="172.36218"
         style="font-size:10px;font-style:normal;font-variant:normal;font-weight:normal;font-stretch:normal;fill:#000000;font-family:Arial;-inkscape-font-specification:Arial">Four items</tspan></text>
    <text
       xml:space="preserve"
       style="font-size:12.5px;font-style:normal;font-variant:normal;font-weight:normal;font-stretch:normal;line-height:125%;letter-spacing:0px;word-spacing:0px;fill:#000000;fill-opacity:1;stroke:none;font-family:Ubuntu;-inkscape-font-specification:Ubuntu"
       x="368"
       y="172.36218"
       id="text3051-4-6-6"
       sodipodi:linespacing="125%"><tspan
         sodipodi:role="line"
         id="tspan3053-4-5-1"
         x="368"
         y="172.36218"
         style="font-size:10px;font-style:normal;font-variant:normal;font-weight:normal;font-stretch:normal;fill:#000000;font-family:Arial;-inkscape-font-specification:Arial">Eight items</tspan></text>
    <text
       xml:space="preserve"
       style="font-size:12.5px;font-style:normal;font-variant:normal;font-weight:normal;font-stretch:normal;line-height:125%;letter-spacing:0px;word-spacing:0px;fill:#000000;fill-opacity:1;stroke:none;font-family:Arial;-inkscape-font-specification:Arial"
       x="32"
       y="12.362183"
       id="text4804"
       sodipodi:linespacing="125%"><tspan
         sodipodi:role="line"
         id="tspan4806"
         x="32"
         y="12.362183">a) Example configurations</tspan></text>
    <text
       xml:space="preserve"
       style="font-size:12.5px;font-style:normal;font-variant:normal;font-weight:normal;font-stretch:normal;line-height:125%;letter-spacing:0px;word-spacing:0px;fill:#000000;fill-opacity:1;stroke:none;font-family:Arial;-inkscape-font-specification:Arial"
       x="32"
       y="204.36218"
       id="text4804-8"
       sodipodi:linespacing="125%"><tspan
         sodipodi:role="line"
         id="tspan4806-1"
         x="32"
         y="204.36218">b) Schematic example trial</tspan></text>
    <text
       xml:space="preserve"
       style="font-size:12.5px;font-style:normal;font-variant:normal;font-weight:normal;font-stretch:normal;line-height:125%;letter-spacing:0px;word-spacing:0px;fill:#000000;fill-opacity:1;stroke:none;font-family:Ubuntu;-inkscape-font-specification:Ubuntu"
       x="368"
       y="412.36218"
       id="text3051-8-8-5"
       sodipodi:linespacing="125%"><tspan
         sodipodi:role="line"
         x="368"
         y="412.36218"
         style="font-size:10px;font-style:normal;font-variant:normal;font-weight:normal;font-stretch:normal;font-family:Arial;-inkscape-font-specification:Arial"
         id="tspan3205-6">Selection made</tspan></text>
  </g>
</svg>
